<svg width="32" height="32" viewBox="0 0 100 100" fill="none" xmlns="http://www.w3.org/2000/svg">
  <!-- Main Shell Shape -->
  <path 
    d="M50 10C29.5 10 13 26.5 13 47C13 67.5 29.5 90 50 90C70.5 90 87 67.5 87 47C87 26.5 70.5 10 50 10Z"
    fill="url(#shellGradient)"
    stroke="url(#shellStrokeGradient)"
    stroke-width="4"
    stroke-linecap="round"
  />
  
  <!-- Inner Shell Lines -->
  <path 
    d="M35 30C42 35 58 35 65 30"
    stroke="#ffffff"
    stroke-width="3"
    stroke-linecap="round"
  />
  
  <path 
    d="M30 45C40 52 60 52 70 45"
    stroke="#ffffff"
    stroke-width="3"
    stroke-linecap="round"
  />
  
  <path 
    d="M25 60C38 70 62 70 75 60"
    stroke="#ffffff"
    stroke-width="3"
    stroke-linecap="round"
  />
  
  <!-- Software Symbol (S) -->
  <path 
    d="M43 25C43 25 47 23 50 23C53 23 57 25 57 29C57 33 53 35 50 35C47 35 43 37 43 41C43 45 47 47 50 47C53 47 57 45 57 45"
    stroke="#ffffff"
    stroke-width="3"
    stroke-linecap="round"
  />
  
  <!-- Gradients -->
  <defs>
    <linearGradient id="shellGradient" x1="13" y1="10" x2="87" y2="90" gradientUnits="userSpaceOnUse">
      <stop offset="0%" stop-color="#0284c7" />
      <stop offset="100%" stop-color="#7e22ce" />
    </linearGradient>
    <linearGradient id="shellStrokeGradient" x1="13" y1="10" x2="87" y2="90" gradientUnits="userSpaceOnUse">
      <stop offset="0%" stop-color="#38bdf8" />
      <stop offset="100%" stop-color="#a855f7" />
    </linearGradient>
  </defs>
</svg>